<?xml version="1.0" encoding="UTF-8" standalone="no"?>
<svg
   xmlns:dc="http://purl.org/dc/elements/1.1/"
   xmlns:cc="http://creativecommons.org/ns#"
   xmlns:rdf="http://www.w3.org/1999/02/22-rdf-syntax-ns#"
   xmlns:svg="http://www.w3.org/2000/svg"
   xmlns="http://www.w3.org/2000/svg"
   xmlns:sodipodi="http://sodipodi.sourceforge.net/DTD/sodipodi-0.dtd"
   xmlns:inkscape="http://www.inkscape.org/namespaces/inkscape"
   version="1.0"
   width="552.000000pt"
   height="548.000000pt"
   viewBox="0 0 552.000000 548.000000"
   preserveAspectRatio="xMidYMid meet"
   id="svg44"
   sodipodi:docname="P21-white.svg"
   inkscape:version="0.92.3 (2405546, 2018-03-11)">
  <defs
     id="defs48" />
  <sodipodi:namedview
     pagecolor="#ffffff"
     bordercolor="#666666"
     borderopacity="1"
     objecttolerance="10"
     gridtolerance="10"
     guidetolerance="10"
     inkscape:pageopacity="0"
     inkscape:pageshadow="2"
     inkscape:window-width="1440"
     inkscape:window-height="837"
     id="namedview46"
     showgrid="false"
     inkscape:zoom="0.91423358"
     inkscape:cx="368"
     inkscape:cy="409.08583"
     inkscape:window-x="-8"
     inkscape:window-y="-8"
     inkscape:window-maximized="1"
     inkscape:current-layer="svg44" />
  <metadata
     id="metadata30">
Created by potrace 1.15, written by Peter Selinger 2001-2017
<rdf:RDF>
  <cc:Work
     rdf:about="">
    <dc:format>image/svg+xml</dc:format>
    <dc:type
       rdf:resource="http://purl.org/dc/dcmitype/StillImage" />
  </cc:Work>
</rdf:RDF>
</metadata>
  <path
     d="m 214.412,280.60458 c -14.76684,-3.67941 -30.0711,-16.29952 -37.15977,-30.64246 -5.01849,-10.15422 -6.67093,-19.60059 -5.62506,-32.15618 0.68344,-8.20457 1.46189,-10.86376 5.60026,-19.13056 5.68175,-11.34984 15.39126,-21.28954 26.7183,-27.35173 l 7.09219,-3.79573 27.89222,-1.17376 27.89222,-1.17377 7.16855,-3.55202 c 17.2461,-8.54548 28.01464,-21.97825 32.31634,-40.31167 1.39923,-5.9634 1.59977,-10.61706 1.00453,-23.311111 -1.1745,-25.047256 2.27176,-35.690869 16.21351,-50.074575 12.97299,-13.384236 26.38603,-18.569843 45.02162,-17.405774 16.44678,1.027347 28.40778,6.516187 38.67122,17.746026 10.92589,11.95467 15.60918,23.741318 15.58587,39.225695 -0.0271,17.992749 -4.59541,29.191119 -17.04877,41.791739 -5.63626,5.70291 -9.85484,8.80955 -15.87898,11.69356 l -8.2036,3.92741 -26.42328,0.92955 -26.42328,0.92954 -9.38364,4.64978 c -12.26053,6.07533 -21.47221,15.1115 -27.49415,26.97029 l -4.34351,8.55353 -0.54691,26.90287 -0.5469,26.90287 -4.32033,8.2036 c -5.91832,11.2379 -16.97843,22.12027 -28.30082,27.84601 -8.42196,4.259 -8.76788,4.33175 -21.87624,4.60068 -7.32544,0.1503 -15.24616,-0.20691 -17.60159,-0.79381 z"
     id="path3783"
     inkscape:connector-curvature="0"
     transform="scale(0.74999999)" />
  <path
     d="M 84.443783,417.41978 C 70.602243,414.93717 59.448621,408.74242 49.795034,398.1758 42.259249,389.92728 38.06351,380.98995 36.482104,369.81796 33.488656,348.67048 37.886389,334.39257 51.9554,319.58156 64.153534,306.7401 75.243418,302.17119 94,302.25966 c 23.58666,0.11125 41.27051,10.92599 51.44631,31.4625 13.18406,26.60772 4.25223,58.98919 -20.72374,75.13194 -11.15086,7.20716 -27.943171,10.7782 -40.278787,8.56568 z"
     id="path3785"
     inkscape:connector-curvature="0"
     transform="scale(0.74999999)" />
  <path
     d="m 220.77516,417.43901 c -17.23252,-2.6409 -30.36881,-11.17043 -40.16954,-26.08248 -6.02325,-9.16454 -8.3843,-15.99179 -9.16162,-26.4919 -1.31311,-17.73776 4.46099,-34.29297 15.97729,-45.80927 10.31294,-10.31294 19.7174,-14.83701 34.3687,-16.53326 27.03508,-3.12998 48.22244,8.6995 60.68638,33.8829 l 4.03461,8.1519 -0.0163,15.36506 -0.0163,15.36507 -4.61087,9.46185 c -11.27269,23.13243 -36.24943,36.49734 -61.09228,32.69013 z"
     id="path3787"
     inkscape:connector-curvature="0"
     transform="scale(0.74999999)" />
  <path
     d="m 351.89443,688.17807 c -16.55351,-3.77489 -32.07009,-16.2663 -39.08918,-31.46819 -5.13425,-11.11978 -6.38492,-19.28013 -5.48738,-35.80409 0.90858,-16.72692 -0.38614,-24.94726 -5.66981,-35.99847 -5.36233,-11.2157 -14.34759,-19.98991 -27.34531,-26.70297 l -10.01552,-5.17281 h -22.83995 c -32.45537,0 -40.09463,-2.48106 -54.48669,-17.69607 -14.31753,-15.13621 -19.02503,-34.06223 -13.67522,-54.97977 4.30492,-16.83208 14.19523,-28.99573 29.76453,-36.60605 11.5267,-5.63429 19.04233,-6.78825 39.14884,-6.01101 13.65049,0.52769 16.90126,0.31745 23.21569,-1.50137 19.56186,-5.63464 36.60194,-23.39445 40.87511,-42.60155 1.46601,-6.58942 1.67178,-11.08153 1.05851,-23.10838 -0.59473,-11.66325 -0.38665,-16.72346 0.95123,-23.13253 3.76003,-18.01219 14.34555,-31.77606 30.71469,-39.93686 l 8.7505,-4.36254 h 17.01343 17.01344 l 8.57589,4.23973 c 14.87408,7.35341 25.85914,20.66945 30.79134,37.32514 2.78151,9.39296 2.50283,24.1359 -0.63063,33.36128 -4.97067,14.63447 -17.19953,28.62532 -30.30083,34.66675 -8.22513,3.79286 -15.82917,4.69705 -39.56108,4.70416 l -21.16233,0.007 -8.88644,4.62324 c -11.01904,5.73274 -22.16725,15.99914 -26.7277,24.61358 -6.46913,12.21964 -6.83168,14.95066 -6.83168,51.46313 v 33.26918 l 4.57945,8.80228 c 7.74248,14.88201 18.99099,25.23621 33.24538,30.60222 6.1991,2.33363 7.96379,2.43793 41.47657,2.45139 l 35.002,0.0141 8.9286,-4.7065 c 13.92453,-7.33999 23.52368,-17.75751 29.7315,-32.2662 2.8052,-6.55621 2.88917,-7.39729 2.9126,-29.17399 0.0261,-24.24859 0.54123,-27.45355 6.22116,-38.70542 6.18799,-12.25835 17.35399,-21.87462 32.08286,-27.63011 7.41053,-2.89575 8.28392,-2.98322 30.59833,-3.06437 22.28915,-0.0811 23.17017,-0.16902 29.72089,-2.96699 14.46846,-6.17981 24.98891,-15.85649 32.10058,-29.52602 l 4.54089,-8.72816 0.77852,-27.15747 0.77852,-27.15747 3.74695,-7.49806 c 5.16208,-10.32996 16.5759,-21.73776 27.32367,-27.30931 l 8.20359,-4.25268 h 17.501 17.501 l 8.20359,4.32478 c 19.48257,10.27085 32.77638,31.58607 32.77638,52.55346 0,2.40639 -0.72473,7.82076 -1.61049,12.03194 -3.68976,17.5419 -14.64166,31.31245 -32.05666,40.30694 l -9.84794,5.08627 -23.34323,0.0231 c -21.78885,0.0215 -23.83675,0.19725 -30.75504,2.63886 -14.73204,5.19924 -26.26627,15.3984 -34.18893,30.23165 l -4.33936,8.12438 -0.54691,26.7984 -0.5469,26.7984 -3.61774,7.20589 c -6.57421,13.09465 -16.8414,23.37518 -29.71671,29.75533 l -7.08294,3.50984 -25.18452,0.67617 c -15.06226,0.4044 -26.94303,1.22351 -29.55977,2.03796 -17.05543,5.3085 -32.4197,20.80057 -37.75267,38.06671 -1.82234,5.90003 -2.17148,10.16891 -2.17148,26.55 0,21.70167 -0.92681,27.94953 -5.62453,37.91643 -3.64571,7.73491 -14.22481,19.16698 -21.89837,23.66399 -12.25023,7.1791 -29.60506,9.89912 -43.27329,6.78218 z M 239.17957,533.92134 c 12.50792,-3.25789 21.015,-10.62194 26.77918,-23.18109 2.42547,-5.28466 2.92042,-7.88949 2.87562,-15.13386 -0.11732,-18.97251 -11.59617,-33.71053 -29.8879,-38.37394 -18.71613,-4.7716 -37.06077,3.75231 -45.6298,21.20209 -2.73271,5.56482 -3.06118,7.40742 -3.06118,17.17185 0,13.06808 1.91633,18.20959 10.01348,26.8661 10.56151,11.2911 24.15755,15.29154 38.9106,11.44885 z m 278.05958,-2.13883 c 12.15609,-5.94741 21.33874,-18.36329 22.93746,-31.01382 0.88018,-6.96474 -0.90307,-17.66995 -3.93264,-23.60839 -3.15604,-6.18635 -12.40844,-14.78928 -19.46683,-18.10034 -5.16603,-2.42336 -7.53028,-2.8307 -16.42584,-2.83 -12.94687,10e-4 -18.21281,2.1652 -27.17878,11.16987 -9.34576,9.38612 -11.65156,14.85985 -11.65156,27.65965 0,8.94171 0.40207,11.24872 2.88238,16.53846 5.07648,10.82662 13.98026,18.70641 25.32271,22.41047 7.44813,2.43231 20.08104,1.41028 27.5131,-2.2259 z M 652.51316,395.83247 c 9.87047,-4.68889 15.55914,-10.05094 19.79419,-18.65771 3.25389,-6.61276 3.59236,-8.21555 3.51289,-16.63473 -0.15971,-16.91991 -7.648,-29.23434 -22.10735,-36.35529 -6.68856,-3.29399 -8.14071,-3.58833 -17.70315,-3.58833 -8.69867,0 -11.27045,0.42035 -15.59136,2.5484 -7.67132,3.77812 -15.29608,11.19392 -19.52091,18.98593 -3.52177,6.49533 -3.74261,7.52099 -3.72401,17.29601 0.0168,8.88749 0.43401,11.28079 2.88238,16.53845 9.64508,20.71209 32.47642,29.35904 52.45732,19.86727 z"
     id="path3789"
     inkscape:connector-curvature="0"
     transform="scale(0.74999999)" />
  <path
     d="m 491.34199,417.42406 c -19.34239,-3.4852 -34.69044,-14.99572 -42.90242,-32.17535 -5.16214,-10.7993 -6.41255,-19.03318 -5.49918,-36.21186 0.91854,-17.27602 -0.22369,-24.46084 -5.64238,-35.49156 -4.59025,-9.34429 -15.35368,-20.70593 -24.15254,-25.49485 -9.52169,-5.18236 -16.30754,-6.28437 -38.69719,-6.28437 -23.52008,0 -29.85711,-1.32377 -40.98227,-8.56095 -34.77969,-22.625 -35.74781,-73.7502 -1.83439,-96.87135 11.66167,-7.95057 18.16134,-9.87 33.08694,-9.77092 9.35538,0.0621 14.28985,0.6365 19.25567,2.24149 13.98264,4.51929 26.83101,16.138 34.13232,30.86567 l 4.03716,8.14346 0.54691,26.85853 0.5469,26.85854 4.37525,8.15097 c 6.5504,12.2032 16.50193,21.85683 28.4328,27.58167 l 9.64289,4.62698 25.80847,0.44728 25.80846,0.44729 8.51803,4.40035 c 10.39788,5.37146 18.39322,12.37951 23.98424,21.02259 18.17118,28.09058 7.68046,68.28821 -21.63363,82.8943 -11.86794,5.91333 -25.8147,8.30725 -36.83204,6.32209 z M 381.67265,259.98308 c 8.53778,-4.03505 15.34855,-10.93386 19.52942,-19.78188 2.93403,-6.20932 3.35804,-8.28731 3.34789,-16.40719 -0.0145,-11.59878 -3.17347,-19.23067 -11.34019,-27.39739 -19.98915,-19.98916 -51.73332,-14.7866 -64.13675,10.51138 -2.87125,5.85619 -3.18437,7.5703 -3.18457,17.43292 -2.6e-4,12.83369 1.87995,18.07806 9.41025,26.24747 12.2142,13.25084 30.41354,16.93776 46.37395,9.39469 z"
     id="path3791"
     inkscape:connector-curvature="0"
     transform="scale(0.74999999)" />
  <path
     d="m 485.16079,280.03724 c -19.72032,-5.30346 -35.90918,-21.82919 -41.16704,-42.02367 -2.48114,-9.52963 -1.72886,-24.28628 1.70073,-33.36127 8.57337,-22.68589 27.89352,-37.17199 51.37538,-38.52089 46.3706,-2.66373 76.36188,45.06122 54.36713,86.51413 -6.76775,12.75501 -20.80471,23.67774 -35.27087,27.44569 -7.97684,2.07771 -23.17729,2.05124 -31.00533,-0.054 z"
     id="path3793"
     inkscape:connector-curvature="0"
     transform="scale(0.74999999)" />
  <path
     d="m 354.32735,553.00746 c -27.78426,-5.57685 -47.58084,-29.33882 -47.58084,-57.11158 0,-21.92231 12.96919,-42.98499 32.16975,-52.24544 14.81524,-7.1454 25.33209,-8.27228 40.64719,-4.35533 28.32515,7.24435 47.52393,35.94808 43.2271,64.628 -4.80559,32.07572 -37.26405,55.34665 -68.4632,49.08435 z"
     id="path3795"
     inkscape:connector-curvature="0"
     transform="scale(0.74999999)" />
</svg>
